
<svg xmlns="http://www.w3.org/2000/svg" xmlns:xlink="http://www.w3.org/1999/xlink" width="150" zoomAndPan="magnify" viewBox="0 0 112.5 37.5" height="50" preserveAspectRatio="xMidYMid meet" version="1.0"><defs><clipPath id="81cc1d2521"><path d="M 5.378906 9.257812 L 17.363281 9.257812 L 17.363281 27.710938 L 5.378906 27.710938 Z M 5.378906 9.257812 " clip-rule="nonzero"/></clipPath><clipPath id="b60f1bea4c"><path d="M 5.378906 9.257812 L 17.363281 9.257812 L 17.363281 23.257812 L 5.378906 23.257812 Z M 5.378906 9.257812 " clip-rule="nonzero"/></clipPath><clipPath id="d72d5c6629"><path d="M 21.605469 9.257812 L 25.273438 9.257812 L 25.273438 13 L 21.605469 13 Z M 21.605469 9.257812 " clip-rule="nonzero"/></clipPath><clipPath id="d040b8bbd9"><path d="M 13 9.46875 L 25.273438 9.46875 L 25.273438 27.710938 L 13 27.710938 Z M 13 9.46875 " clip-rule="nonzero"/></clipPath><clipPath id="f6d71c4356"><path d="M 13 9.46875 L 25.273438 9.46875 L 25.273438 23.257812 L 13 23.257812 Z M 13 9.46875 " clip-rule="nonzero"/></clipPath></defs><path fill="#808080" d="M 34.011719 25.566406 L 34.011719 19.652344 L 40.582031 19.652344 L 40.582031 17.289062 L 34.042969 17.289062 L 34.042969 12.929688 L 41.636719 12.929688 L 41.636719 10.441406 L 31.242188 10.441406 L 31.242188 25.566406 Z M 49.046875 25.941406 C 49.449219 25.953125 49.847656 25.921875 50.242188 25.851562 C 50.636719 25.78125 51.019531 25.671875 51.394531 25.523438 C 51.765625 25.375 52.121094 25.191406 52.457031 24.96875 C 52.792969 24.746094 53.101562 24.496094 53.386719 24.210938 C 53.667969 23.925781 53.921875 23.617188 54.144531 23.28125 C 54.363281 22.945312 54.546875 22.59375 54.695312 22.21875 C 54.847656 21.847656 54.957031 21.460938 55.027344 21.066406 C 55.097656 20.671875 55.125 20.273438 55.117188 19.871094 C 55.125 19.472656 55.097656 19.074219 55.027344 18.679688 C 54.957031 18.285156 54.847656 17.902344 54.699219 17.53125 C 54.550781 17.160156 54.367188 16.804688 54.148438 16.472656 C 53.929688 16.136719 53.679688 15.828125 53.394531 15.542969 C 53.113281 15.261719 52.804688 15.007812 52.472656 14.785156 C 52.140625 14.566406 51.785156 14.378906 51.414062 14.230469 C 51.042969 14.082031 50.660156 13.96875 50.269531 13.898438 C 49.875 13.824219 49.476562 13.792969 49.078125 13.804688 C 48.675781 13.796875 48.28125 13.828125 47.890625 13.902344 C 47.496094 13.976562 47.113281 14.089844 46.746094 14.238281 C 46.375 14.390625 46.023438 14.574219 45.691406 14.796875 C 45.355469 15.019531 45.050781 15.269531 44.769531 15.554688 C 44.488281 15.835938 44.234375 16.144531 44.015625 16.480469 C 43.796875 16.8125 43.613281 17.164062 43.464844 17.535156 C 43.316406 17.90625 43.207031 18.289062 43.132812 18.683594 C 43.0625 19.078125 43.03125 19.472656 43.039062 19.871094 C 43.027344 20.269531 43.058594 20.667969 43.128906 21.058594 C 43.195312 21.453125 43.304688 21.835938 43.453125 22.203125 C 43.597656 22.574219 43.78125 22.929688 44 23.261719 C 44.21875 23.597656 44.46875 23.90625 44.746094 24.1875 C 45.027344 24.472656 45.335938 24.722656 45.667969 24.945312 C 45.996094 25.167969 46.347656 25.355469 46.71875 25.503906 C 47.085938 25.65625 47.46875 25.765625 47.859375 25.839844 C 48.25 25.914062 48.648438 25.949219 49.046875 25.941406 Z M 49.078125 23.453125 C 47.148438 23.453125 45.714844 21.925781 45.714844 19.871094 C 45.714844 17.816406 47.148438 16.292969 49.078125 16.292969 C 51.007812 16.292969 52.4375 17.816406 52.4375 19.871094 C 52.4375 21.925781 51.007812 23.421875 49.078125 23.421875 Z M 62.617188 25.941406 C 65.667969 25.941406 68 24.324219 68 20.246094 L 68 14.144531 L 65.292969 14.144531 L 65.292969 20.183594 C 65.292969 22.269531 64.421875 23.421875 62.617188 23.421875 C 60.8125 23.421875 59.910156 22.300781 59.910156 20.183594 L 59.910156 14.144531 L 57.230469 14.144531 L 57.230469 20.246094 C 57.230469 24.324219 59.566406 25.941406 62.617188 25.941406 Z M 73.632812 25.566406 L 73.632812 19.746094 C 73.632812 17.507812 75.066406 16.261719 76.652344 16.261719 C 78.273438 16.261719 79.300781 17.195312 79.300781 19.46875 L 79.300781 25.597656 L 81.976562 25.597656 L 81.976562 19.40625 C 81.976562 15.824219 80.449219 13.804688 77.402344 13.804688 C 76.601562 13.769531 75.851562 13.941406 75.148438 14.320312 C 74.445312 14.703125 73.890625 15.234375 73.480469 15.917969 L 73.480469 14.144531 L 70.894531 14.144531 L 70.894531 25.566406 Z M 89.789062 25.941406 C 91.71875 25.941406 93.085938 24.882812 93.742188 23.667969 L 93.742188 25.597656 L 96.324219 25.597656 L 96.324219 9.914062 L 93.617188 9.914062 L 93.617188 14.828125 L 93.679688 16.011719 C 93.054688 14.921875 91.6875 13.804688 89.820312 13.804688 C 86.488281 13.804688 84.246094 16.511719 84.246094 19.871094 C 84.246094 23.234375 86.519531 25.941406 89.789062 25.941406 Z M 90.285156 23.453125 C 88.292969 23.453125 86.894531 21.894531 86.894531 19.871094 C 86.894531 17.785156 88.386719 16.292969 90.285156 16.292969 C 92.152344 16.292969 93.648438 17.847656 93.648438 19.871094 C 93.648438 21.894531 92.152344 23.453125 90.285156 23.453125 Z M 102.175781 25.566406 L 102.175781 20.277344 C 102.175781 17.816406 103.421875 16.449219 105.289062 16.449219 L 106.347656 16.449219 L 106.347656 14.144531 L 105.132812 14.144531 C 103.636719 14.144531 102.582031 14.953125 102.050781 16.199219 L 102.050781 14.144531 L 99.46875 14.144531 L 99.46875 25.566406 Z M 102.175781 25.566406 " fill-opacity="1" fill-rule="nonzero"/><g clip-path="url(#81cc1d2521)"><path fill="#808080" d="M 10.109375 10.191406 L 16.511719 16.574219 C 16.914062 16.972656 17.171875 17.445312 17.28125 17.996094 C 17.394531 18.550781 17.34375 19.085938 17.128906 19.609375 C 16.984375 19.945312 16.777344 20.242188 16.511719 20.5 L 10.148438 26.863281 C 9.761719 27.285156 9.289062 27.5625 8.730469 27.691406 C 8.171875 27.820312 7.625 27.777344 7.09375 27.566406 C 6.558594 27.351562 6.132812 27.007812 5.816406 26.53125 C 5.5 26.050781 5.34375 25.527344 5.355469 24.953125 L 5.355469 12.183594 C 5.347656 11.617188 5.496094 11.101562 5.804688 10.628906 C 6.113281 10.15625 6.53125 9.808594 7.050781 9.59375 C 7.574219 9.375 8.109375 9.324219 8.664062 9.433594 C 9.21875 9.546875 9.691406 9.804688 10.085938 10.210938 Z M 10.109375 10.191406 " fill-opacity="1" fill-rule="nonzero"/></g><g clip-path="url(#b60f1bea4c)"><path fill="#808080" d="M 10.109375 10.191406 C 9.71875 9.789062 9.25 9.53125 8.699219 9.417969 C 8.152344 9.300781 7.621094 9.351562 7.101562 9.558594 C 6.585938 9.769531 6.167969 10.105469 5.855469 10.566406 C 5.539062 11.027344 5.378906 11.539062 5.378906 12.097656 C 5.378906 12.097656 15.433594 21.621094 13.839844 23.171875 L 16.511719 20.5 C 16.910156 20.101562 17.160156 19.632812 17.269531 19.082031 C 17.375 18.535156 17.324219 18.003906 17.109375 17.488281 C 16.96875 17.152344 16.769531 16.851562 16.511719 16.59375 Z M 10.109375 10.191406 " fill-opacity="1" fill-rule="nonzero"/></g><g clip-path="url(#d72d5c6629)"><path fill="#808080" d="M 25.273438 11.101562 C 25.273438 11.339844 25.230469 11.570312 25.136719 11.792969 C 25.046875 12.011719 24.914062 12.207031 24.746094 12.375 C 24.578125 12.546875 24.382812 12.675781 24.160156 12.765625 C 23.941406 12.859375 23.710938 12.90625 23.472656 12.90625 C 23.230469 12.90625 23.003906 12.859375 22.78125 12.765625 C 22.558594 12.675781 22.367188 12.546875 22.195312 12.375 C 22.027344 12.207031 21.898438 12.011719 21.804688 11.792969 C 21.714844 11.570312 21.667969 11.339844 21.667969 11.101562 C 21.667969 10.863281 21.714844 10.632812 21.804688 10.410156 C 21.898438 10.191406 22.027344 9.996094 22.195312 9.828125 C 22.367188 9.65625 22.558594 9.527344 22.78125 9.4375 C 23.003906 9.34375 23.230469 9.296875 23.472656 9.296875 C 23.710938 9.296875 23.941406 9.34375 24.160156 9.4375 C 24.382812 9.527344 24.578125 9.65625 24.746094 9.828125 C 24.914062 9.996094 25.046875 10.191406 25.136719 10.410156 C 25.230469 10.632812 25.273438 10.863281 25.273438 11.101562 Z M 25.273438 11.101562 " fill-opacity="1" fill-rule="nonzero"/><path fill="#808080" d="M 25.273438 11.101562 C 25.273438 11.339844 25.230469 11.570312 25.136719 11.792969 C 25.046875 12.011719 24.914062 12.207031 24.746094 12.375 C 24.578125 12.546875 24.382812 12.675781 24.160156 12.765625 C 23.941406 12.859375 23.710938 12.90625 23.472656 12.90625 C 23.230469 12.90625 23.003906 12.859375 22.78125 12.765625 C 22.558594 12.675781 22.367188 12.546875 22.195312 12.375 C 22.027344 12.207031 21.898438 12.011719 21.804688 11.792969 C 21.714844 11.570312 21.667969 11.339844 21.667969 11.101562 C 21.667969 10.863281 21.714844 10.632812 21.804688 10.410156 C 21.898438 10.191406 22.027344 9.996094 22.195312 9.828125 C 22.367188 9.65625 22.558594 9.527344 22.78125 9.4375 C 23.003906 9.34375 23.230469 9.296875 23.472656 9.296875 C 23.710938 9.296875 23.941406 9.34375 24.160156 9.4375 C 24.382812 9.527344 24.578125 9.65625 24.746094 9.828125 C 24.914062 9.996094 25.046875 10.191406 25.136719 10.410156 C 25.230469 10.632812 25.273438 10.863281 25.273438 11.101562 Z M 25.273438 11.101562 " fill-opacity="1" fill-rule="nonzero"/></g><g clip-path="url(#d040b8bbd9)"><path fill="#808080" d="M 24.445312 16.59375 L 18.0625 10.230469 C 16.363281 8.492188 11.761719 10.488281 13.332031 12.054688 L 17.933594 16.636719 C 18.164062 16.863281 18.34375 17.121094 18.480469 17.414062 C 18.621094 17.703125 18.703125 18.007812 18.734375 18.328125 C 18.765625 18.644531 18.742188 18.960938 18.664062 19.273438 C 18.582031 19.582031 18.453125 19.871094 18.273438 20.136719 L 17.933594 20.5625 L 13.332031 25.144531 C 11.933594 26.542969 16.363281 28.601562 18.0625 26.90625 L 24.445312 20.542969 C 25.003906 20 25.28125 19.34375 25.273438 18.570312 C 25.273438 17.792969 25 17.136719 24.445312 16.59375 Z M 24.445312 16.59375 " fill-opacity="1" fill-rule="nonzero"/></g><g clip-path="url(#f6d71c4356)"><path fill="#808080" d="M 24.445312 16.59375 L 18.0625 10.230469 C 16.363281 8.492188 11.761719 10.488281 13.332031 12.054688 L 17.933594 16.636719 C 18.390625 17.097656 18.652344 17.648438 18.71875 18.292969 C 20.074219 19.6875 21.136719 21.277344 21.902344 23.066406 L 24.445312 20.519531 C 25.003906 19.980469 25.28125 19.324219 25.273438 18.546875 C 25.269531 17.78125 24.992188 17.132812 24.445312 16.59375 Z M 24.445312 16.59375 " fill-opacity="1" fill-rule="nonzero"/></g></svg>