
<svg xmlns="http://www.w3.org/2000/svg" xmlns:xlink="http://www.w3.org/1999/xlink" width="200" zoomAndPan="magnify" viewBox="0 0 150 37.5" height="50" preserveAspectRatio="xMidYMid meet" version="1.0"><defs><clipPath id="dfb6280423"><path d="M 7.226562 7.933594 L 28.6875 7.933594 L 28.6875 29.398438 L 7.226562 29.398438 Z M 7.226562 7.933594 " clip-rule="nonzero"/></clipPath><clipPath id="fd144805c7"><path d="M 96 12.910156 L 105 12.910156 L 105 24.015625 L 96 24.015625 Z M 96 12.910156 " clip-rule="nonzero"/></clipPath><clipPath id="19981eadb8"><path d="M 134 12.910156 L 143 12.910156 L 143 24.015625 L 134 24.015625 Z M 134 12.910156 " clip-rule="nonzero"/></clipPath></defs><g clip-path="url(#dfb6280423)"><path fill="#808080" d="M 7.226562 7.933594 L 28.6875 7.933594 L 28.6875 29.398438 L 7.226562 29.398438 Z M 7.226562 7.933594 " fill-opacity="1" fill-rule="nonzero"/></g><path fill="#ffffff" d="M 12.054688 14.015625 L 14.203125 14.015625 L 14.203125 23.316406 L 12.054688 23.316406 Z M 12.054688 14.015625 " fill-opacity="1" fill-rule="nonzero"/><path fill="#ffffff" d="M 16.347656 14.015625 L 18.492188 14.015625 L 18.492188 23.316406 L 16.347656 23.316406 Z M 16.347656 14.015625 " fill-opacity="1" fill-rule="nonzero"/><path fill="#ffffff" d="M 18.136719 17.59375 L 22.070312 17.59375 L 22.070312 19.738281 L 18.136719 19.738281 Z M 18.136719 17.59375 " fill-opacity="1" fill-rule="nonzero"/><path fill="#ffffff" d="M 21.714844 14.015625 L 23.859375 14.015625 L 23.859375 23.316406 L 21.714844 23.316406 Z M 21.714844 14.015625 " fill-opacity="1" fill-rule="nonzero"/><path fill="#808080" d="M 32.214844 13.109375 L 34.648438 13.109375 L 34.648438 23.824219 L 32.214844 23.824219 Z M 32.214844 13.109375 " fill-opacity="1" fill-rule="nonzero"/><path fill="#808080" d="M 37.203125 23.824219 L 37.203125 13.109375 L 39.707031 13.109375 L 42.523438 18.4375 L 43.585938 20.804688 L 43.65625 20.804688 C 43.605469 20.234375 43.535156 19.605469 43.464844 18.902344 C 43.394531 18.203125 43.359375 17.539062 43.359375 16.898438 L 43.359375 13.109375 L 45.679688 13.109375 L 45.679688 23.824219 L 43.175781 23.824219 L 40.351562 18.480469 L 39.289062 16.144531 L 39.21875 16.144531 C 39.269531 16.734375 39.339844 17.375 39.410156 18.046875 C 39.480469 18.730469 39.515625 19.386719 39.515625 20.019531 L 39.515625 23.816406 L 37.203125 23.816406 Z M 37.203125 23.824219 " fill-opacity="1" fill-rule="nonzero"/><path fill="#808080" d="M 48.214844 23.824219 L 48.214844 13.109375 L 51.269531 13.109375 C 52.097656 13.109375 52.847656 13.214844 53.507812 13.421875 C 54.171875 13.628906 54.738281 13.949219 55.21875 14.382812 C 55.6875 14.8125 56.054688 15.367188 56.308594 16.035156 C 56.5625 16.699219 56.691406 17.496094 56.691406 18.417969 C 56.691406 19.335938 56.5625 20.140625 56.308594 20.816406 C 56.054688 21.496094 55.699219 22.050781 55.234375 22.5 C 54.773438 22.949219 54.214844 23.277344 53.570312 23.496094 C 52.925781 23.710938 52.203125 23.824219 51.40625 23.824219 Z M 50.660156 21.859375 L 51.121094 21.859375 C 51.582031 21.859375 52 21.800781 52.375 21.679688 C 52.75 21.558594 53.074219 21.367188 53.335938 21.101562 C 53.597656 20.832031 53.804688 20.476562 53.953125 20.035156 C 54.101562 19.59375 54.179688 19.058594 54.179688 18.410156 C 54.179688 17.78125 54.101562 17.242188 53.953125 16.8125 C 53.804688 16.378906 53.597656 16.035156 53.335938 15.773438 C 53.074219 15.515625 52.75 15.332031 52.375 15.21875 C 52 15.109375 51.582031 15.054688 51.121094 15.054688 L 50.660156 15.054688 Z M 50.660156 21.859375 " fill-opacity="1" fill-rule="nonzero"/><path fill="#808080" d="M 58.742188 13.109375 L 61.175781 13.109375 L 61.175781 23.824219 L 58.742188 23.824219 Z M 58.742188 13.109375 " fill-opacity="1" fill-rule="nonzero"/><path fill="#808080" d="M 63.730469 23.824219 L 63.730469 13.109375 L 70.488281 13.109375 L 70.488281 15.152344 L 66.160156 15.152344 L 66.160156 17.304688 L 69.839844 17.304688 L 69.839844 19.328125 L 66.160156 19.328125 L 66.160156 21.792969 L 70.652344 21.792969 L 70.652344 23.832031 L 63.730469 23.832031 Z M 63.730469 23.824219 " fill-opacity="1" fill-rule="nonzero"/><path fill="#808080" d="M 76.121094 23.824219 L 76.121094 13.109375 L 78.550781 13.109375 L 78.550781 17.234375 L 82.285156 17.234375 L 82.285156 13.109375 L 84.734375 13.109375 L 84.734375 23.824219 L 82.285156 23.824219 L 82.285156 19.355469 L 78.550781 19.355469 L 78.550781 23.824219 Z M 76.121094 23.824219 " fill-opacity="1" fill-rule="nonzero"/><path fill="#808080" d="M 85.910156 23.824219 L 89.285156 13.109375 L 92.214844 13.109375 L 95.597656 23.824219 L 93.019531 23.824219 L 92.355469 21.273438 L 89.058594 21.273438 L 88.394531 23.824219 Z M 89.816406 18.402344 L 89.554688 19.386719 L 91.859375 19.386719 L 91.605469 18.402344 C 91.449219 17.867188 91.300781 17.296875 91.160156 16.691406 C 91.019531 16.085938 90.871094 15.507812 90.734375 14.953125 L 90.664062 14.953125 C 90.53125 15.523438 90.394531 16.101562 90.253906 16.699219 C 90.121094 17.296875 89.972656 17.867188 89.816406 18.402344 Z M 89.816406 18.402344 " fill-opacity="1" fill-rule="nonzero"/><g clip-path="url(#fd144805c7)"><path fill="#808080" d="M 101.117188 24.015625 C 100.429688 24.015625 99.785156 23.894531 99.183594 23.660156 C 98.570312 23.425781 98.039062 23.082031 97.585938 22.613281 C 97.125 22.15625 96.765625 21.585938 96.503906 20.894531 C 96.242188 20.210938 96.105469 19.414062 96.105469 18.515625 C 96.105469 17.625 96.242188 16.835938 96.523438 16.136719 C 96.800781 15.445312 97.167969 14.847656 97.628906 14.375 C 98.09375 13.890625 98.632812 13.527344 99.253906 13.273438 C 99.871094 13.023438 100.523438 12.894531 101.207031 12.894531 C 101.902344 12.894531 102.523438 13.03125 103.078125 13.308594 C 103.628906 13.585938 104.089844 13.914062 104.457031 14.285156 L 103.160156 15.851562 C 102.878906 15.601562 102.589844 15.394531 102.285156 15.238281 C 101.980469 15.082031 101.640625 14.996094 101.25 14.996094 C 100.882812 14.996094 100.542969 15.074219 100.210938 15.238281 C 99.886719 15.394531 99.601562 15.628906 99.367188 15.921875 C 99.128906 16.214844 98.9375 16.578125 98.796875 17 C 98.660156 17.425781 98.589844 17.910156 98.589844 18.445312 C 98.589844 19.550781 98.824219 20.410156 99.304688 21.011719 C 99.773438 21.617188 100.410156 21.921875 101.214844 21.921875 C 101.660156 21.921875 102.050781 21.828125 102.398438 21.636719 C 102.75 21.445312 103.054688 21.203125 103.316406 20.917969 L 104.605469 22.433594 C 103.707031 23.496094 102.539062 24.015625 101.117188 24.015625 Z M 101.117188 24.015625 " fill-opacity="1" fill-rule="nonzero"/></g><path fill="#808080" d="M 106.253906 23.824219 L 106.253906 13.109375 L 108.6875 13.109375 L 108.6875 17.496094 L 108.757812 17.496094 L 111.972656 13.109375 L 114.660156 13.109375 L 111.390625 17.382812 L 115.253906 23.824219 L 112.585938 23.824219 L 109.949219 19.308594 L 108.695312 20.953125 L 108.695312 23.824219 Z M 106.253906 23.824219 " fill-opacity="1" fill-rule="nonzero"/><path fill="#808080" d="M 116.429688 23.824219 L 116.429688 13.109375 L 123.1875 13.109375 L 123.1875 15.152344 L 118.863281 15.152344 L 118.863281 17.304688 L 122.542969 17.304688 L 122.542969 19.328125 L 118.863281 19.328125 L 118.863281 21.792969 L 123.351562 21.792969 L 123.351562 23.832031 L 116.429688 23.832031 Z M 116.429688 23.824219 " fill-opacity="1" fill-rule="nonzero"/><path fill="#808080" d="M 125.507812 23.824219 L 125.507812 13.109375 L 129.402344 13.109375 C 129.980469 13.109375 130.519531 13.164062 131.015625 13.273438 C 131.523438 13.386719 131.957031 13.570312 132.332031 13.828125 C 132.707031 14.089844 133.003906 14.425781 133.230469 14.859375 C 133.449219 15.28125 133.5625 15.816406 133.5625 16.449219 C 133.5625 17.234375 133.390625 17.882812 133.039062 18.394531 C 132.691406 18.902344 132.230469 19.285156 131.636719 19.535156 L 134.085938 23.824219 L 131.355469 23.824219 L 129.28125 19.96875 L 127.9375 19.96875 L 127.9375 23.824219 Z M 127.9375 18.039062 L 129.195312 18.039062 C 129.832031 18.039062 130.320312 17.910156 130.660156 17.632812 C 131 17.363281 131.164062 16.96875 131.164062 16.441406 C 131.164062 15.914062 131 15.550781 130.660156 15.339844 C 130.320312 15.132812 129.832031 15.03125 129.195312 15.03125 L 127.9375 15.03125 Z M 127.9375 18.039062 " fill-opacity="1" fill-rule="nonzero"/><g clip-path="url(#19981eadb8)"><path fill="#808080" d="M 138.726562 24.015625 C 138.019531 24.015625 137.3125 23.882812 136.613281 23.625 C 135.917969 23.367188 135.289062 22.984375 134.730469 22.464844 L 136.125 20.804688 C 136.511719 21.132812 136.9375 21.402344 137.410156 21.609375 C 137.878906 21.816406 138.339844 21.921875 138.796875 21.921875 C 139.300781 21.921875 139.683594 21.828125 139.929688 21.644531 C 140.179688 21.453125 140.304688 21.203125 140.304688 20.894531 C 140.304688 20.726562 140.269531 20.589844 140.199219 20.46875 C 140.128906 20.347656 140.023438 20.246094 139.886719 20.148438 C 139.746094 20.054688 139.578125 19.96875 139.386719 19.890625 C 139.195312 19.804688 138.976562 19.714844 138.75 19.621094 L 137.347656 19.035156 C 137.070312 18.921875 136.808594 18.78125 136.546875 18.609375 C 136.285156 18.4375 136.058594 18.230469 135.847656 17.996094 C 135.648438 17.761719 135.480469 17.484375 135.359375 17.175781 C 135.238281 16.863281 135.175781 16.507812 135.175781 16.109375 C 135.175781 15.671875 135.273438 15.265625 135.457031 14.875 C 135.648438 14.484375 135.910156 14.148438 136.25 13.855469 C 136.589844 13.558594 137 13.335938 137.46875 13.171875 C 137.941406 13.007812 138.453125 12.921875 139.023438 12.921875 C 139.648438 12.921875 140.269531 13.042969 140.886719 13.285156 C 141.5 13.527344 142.039062 13.871094 142.5 14.339844 L 141.246094 15.851562 C 140.886719 15.574219 140.539062 15.367188 140.179688 15.21875 C 139.824219 15.074219 139.441406 14.996094 139.003906 14.996094 C 138.585938 14.996094 138.253906 15.082031 138 15.246094 C 137.757812 15.417969 137.625 15.652344 137.625 15.964844 C 137.625 16.128906 137.671875 16.265625 137.75 16.378906 C 137.828125 16.492188 137.949219 16.59375 138.097656 16.691406 C 138.246094 16.785156 138.421875 16.871094 138.621094 16.949219 C 138.820312 17.035156 139.039062 17.121094 139.265625 17.21875 L 140.660156 17.78125 C 141.324219 18.039062 141.847656 18.402344 142.230469 18.859375 C 142.613281 19.320312 142.804688 19.933594 142.804688 20.683594 C 142.804688 21.132812 142.71875 21.558594 142.535156 21.957031 C 142.351562 22.355469 142.089844 22.707031 141.742188 23.011719 C 141.394531 23.3125 140.964844 23.554688 140.460938 23.738281 C 139.9375 23.925781 139.363281 24.015625 138.726562 24.015625 Z M 138.726562 24.015625 " fill-opacity="1" fill-rule="nonzero"/></g></svg>