
<svg xmlns="http://www.w3.org/2000/svg" xmlns:xlink="http://www.w3.org/1999/xlink" width="200" zoomAndPan="magnify" viewBox="0 0 150 37.5" height="50" preserveAspectRatio="xMidYMid meet" version="1.0"><defs><clipPath id="f5ba9094dd"><path d="M 13.71875 9.015625 L 33 9.015625 L 33 28.257812 L 13.71875 28.257812 Z M 13.71875 9.015625 " clip-rule="nonzero"/></clipPath><clipPath id="8f5387c7a8"><path d="M 33 9.015625 L 43 9.015625 L 43 28 L 33 28 Z M 33 9.015625 " clip-rule="nonzero"/></clipPath><clipPath id="5e8006bbc2"><path d="M 51 9.015625 L 136.582031 9.015625 L 136.582031 28 L 51 28 Z M 51 9.015625 " clip-rule="nonzero"/></clipPath></defs><g clip-path="url(#f5ba9094dd)"><path fill="#808080" d="M 32.285156 18.738281 C 32.285156 23.90625 28.175781 28.09375 23.105469 28.09375 C 18.035156 28.09375 13.925781 23.90625 13.925781 18.738281 C 13.925781 13.570312 18.035156 9.382812 23.105469 9.382812 C 28.175781 9.382812 32.285156 13.574219 32.285156 18.738281 " fill-opacity="1" fill-rule="nonzero"/></g><g clip-path="url(#8f5387c7a8)"><path fill="#808080" d="M 42.355469 18.738281 C 42.355469 23.601562 40.300781 27.542969 37.765625 27.542969 C 35.230469 27.542969 33.175781 23.601562 33.175781 18.738281 C 33.175781 13.875 35.230469 9.933594 37.765625 9.933594 C 40.300781 9.933594 42.355469 13.875 42.355469 18.738281 " fill-opacity="1" fill-rule="nonzero"/></g><path fill="#808080" d="M 46.472656 18.738281 C 46.472656 23.09375 45.75 26.628906 44.859375 26.628906 C 43.96875 26.628906 43.246094 23.09375 43.246094 18.738281 C 43.246094 14.382812 43.96875 10.847656 44.859375 10.847656 C 45.75 10.847656 46.472656 14.382812 46.472656 18.738281 " fill-opacity="1" fill-rule="nonzero"/><g clip-path="url(#5e8006bbc2)"><path fill="#808080" d="M 71.808594 10.195312 L 71.832031 10.191406 L 71.832031 9.988281 L 66.613281 9.988281 L 61.765625 21.519531 L 56.917969 9.988281 L 51.292969 9.988281 L 51.292969 10.191406 L 51.316406 10.195312 C 52.269531 10.414062 52.753906 10.738281 52.753906 11.910156 L 52.753906 25.613281 C 52.753906 26.785156 52.269531 27.109375 51.316406 27.328125 L 51.289062 27.332031 L 51.289062 27.535156 L 55.109375 27.535156 L 55.109375 27.332031 L 55.082031 27.328125 C 54.128906 27.109375 53.644531 26.785156 53.644531 25.613281 L 53.644531 12.703125 L 59.871094 27.535156 L 60.226562 27.535156 L 66.632812 12.289062 L 66.632812 25.953125 C 66.554688 26.878906 66.074219 27.164062 65.210938 27.359375 L 65.183594 27.367188 L 65.183594 27.566406 L 71.832031 27.566406 L 71.832031 27.367188 L 71.808594 27.359375 C 70.945312 27.164062 70.453125 26.878906 70.371094 25.953125 L 70.367188 11.910156 L 70.371094 11.910156 C 70.371094 10.738281 70.855469 10.414062 71.808594 10.195312 M 74.84375 19.273438 C 74.953125 16.8125 75.828125 15.035156 77.292969 15.003906 C 77.746094 15.011719 78.125 15.160156 78.421875 15.449219 C 79.046875 16.066406 79.339844 17.351562 79.296875 19.273438 Z M 74.78125 19.96875 L 82.570312 19.96875 L 82.570312 19.9375 C 82.550781 18.050781 82.011719 16.585938 80.972656 15.582031 C 80.074219 14.714844 78.742188 14.234375 77.347656 14.234375 L 77.316406 14.234375 C 76.589844 14.234375 75.699219 14.414062 75.066406 14.734375 C 74.347656 15.074219 73.710938 15.578125 73.183594 16.238281 C 72.332031 17.308594 71.816406 18.75 71.691406 20.371094 C 71.6875 20.417969 71.683594 20.46875 71.679688 20.515625 C 71.675781 20.566406 71.675781 20.609375 71.671875 20.65625 C 71.667969 20.742188 71.664062 20.828125 71.664062 20.914062 C 71.660156 21.054688 71.660156 21.195312 71.660156 21.339844 C 71.746094 25.011719 73.707031 27.945312 77.1875 27.945312 C 80.242188 27.945312 82.019531 25.683594 82.464844 22.648438 L 82.238281 22.570312 C 81.460938 24.199219 80.058594 25.1875 78.46875 25.066406 C 76.292969 24.902344 74.628906 22.671875 74.777344 19.96875 M 91.382812 24.945312 C 91.128906 25.558594 90.59375 25.894531 89.878906 25.894531 C 89.164062 25.894531 88.511719 25.398438 88.046875 24.496094 C 87.546875 23.527344 87.285156 22.160156 87.285156 20.535156 C 87.285156 17.160156 88.324219 14.976562 89.929688 14.976562 C 90.601562 14.976562 91.128906 15.316406 91.382812 15.902344 Z M 96.550781 27.351562 C 95.597656 27.121094 95.117188 26.78125 95.117188 25.550781 L 95.117188 9.183594 L 89.328125 10.910156 L 89.328125 11.121094 L 89.363281 11.117188 C 90.160156 11.050781 90.703125 11.164062 91.015625 11.457031 C 91.261719 11.6875 91.382812 12.042969 91.382812 12.539062 L 91.382812 14.78125 C 90.8125 14.414062 90.132812 14.234375 89.308594 14.234375 C 87.636719 14.234375 86.113281 14.945312 85.011719 16.238281 C 83.863281 17.585938 83.253906 19.429688 83.253906 21.566406 C 83.253906 25.378906 85.109375 27.945312 87.871094 27.945312 C 89.488281 27.945312 90.789062 27.046875 91.382812 25.535156 L 91.382812 27.566406 L 96.578125 27.566406 L 96.578125 27.355469 Z M 101.515625 11.410156 C 101.515625 10.21875 100.628906 9.320312 99.453125 9.320312 C 98.28125 9.320312 97.363281 10.238281 97.363281 11.410156 C 97.363281 12.582031 98.28125 13.5 99.453125 13.5 C 100.628906 13.5 101.515625 12.601562 101.515625 11.410156 M 102.882812 27.351562 C 101.929688 27.121094 101.449219 26.78125 101.449219 25.550781 L 101.441406 25.550781 L 101.441406 14.273438 L 96.25 15.78125 L 96.25 15.988281 L 96.28125 15.992188 C 97.402344 16.089844 97.710938 16.484375 97.710938 17.8125 L 97.710938 27.566406 L 102.910156 27.566406 L 102.910156 27.355469 Z M 116.195312 27.351562 C 115.242188 27.121094 114.757812 26.78125 114.757812 25.550781 L 114.757812 14.273438 L 109.8125 15.734375 L 109.8125 15.9375 L 109.84375 15.941406 C 110.761719 16.039062 111.027344 16.453125 111.027344 17.789062 L 111.027344 24.917969 C 110.71875 25.53125 110.144531 25.894531 109.449219 25.921875 C 108.320312 25.921875 107.699219 25.148438 107.699219 23.746094 L 107.699219 14.273438 L 102.503906 15.78125 L 102.503906 15.988281 L 102.535156 15.992188 C 103.65625 16.089844 103.964844 16.484375 103.964844 17.8125 L 103.964844 23.847656 C 103.964844 24.269531 104 24.6875 104.074219 25.101562 L 104.167969 25.515625 C 104.605469 27.109375 105.761719 27.945312 107.566406 27.945312 C 109.09375 27.945312 110.433594 26.984375 111.023438 25.488281 L 111.023438 27.570312 L 116.21875 27.570312 L 116.21875 27.359375 Z M 136.375 27.566406 L 136.375 27.355469 L 136.351562 27.347656 C 135.316406 27.105469 134.914062 26.652344 134.914062 25.726562 L 134.914062 18.054688 C 134.914062 15.660156 133.585938 14.234375 131.363281 14.234375 C 129.742188 14.234375 128.375 15.183594 127.847656 16.660156 C 127.429688 15.09375 126.226562 14.234375 124.449219 14.234375 C 122.886719 14.234375 121.664062 15.070312 121.136719 16.476562 L 121.136719 14.273438 L 115.941406 15.722656 L 115.941406 15.929688 L 115.972656 15.929688 C 117.085938 16.03125 117.40625 16.433594 117.40625 17.730469 L 117.40625 27.566406 L 122.253906 27.566406 L 122.253906 27.355469 L 122.226562 27.347656 C 121.402344 27.152344 121.136719 26.792969 121.136719 25.875 L 121.136719 17.082031 C 121.355469 16.566406 121.792969 15.957031 122.664062 15.957031 C 123.742188 15.957031 124.289062 16.714844 124.289062 18.203125 L 124.289062 27.566406 L 129.140625 27.566406 L 129.140625 27.355469 L 129.113281 27.347656 C 128.289062 27.152344 128.023438 26.792969 128.023438 25.875 L 128.023438 18.054688 C 128.023438 17.761719 128 17.46875 127.953125 17.179688 C 128.183594 16.621094 128.648438 15.957031 129.554688 15.957031 C 130.648438 15.957031 131.183594 16.691406 131.183594 18.203125 L 131.183594 27.566406 Z M 136.375 27.566406 " fill-opacity="1" fill-rule="nonzero"/></g></svg>