
<svg xmlns="http://www.w3.org/2000/svg" xmlns:xlink="http://www.w3.org/1999/xlink" width="150" zoomAndPan="magnify" viewBox="0 0 112.5 37.5" height="50" preserveAspectRatio="xMidYMid meet" version="1.0"><defs><clipPath id="12d6185ed2"><path d="M 73 4.683594 L 100.851562 4.683594 L 100.851562 32.1875 L 73 32.1875 Z M 73 4.683594 " clip-rule="nonzero"/></clipPath><clipPath id="ecca05c62e"><path d="M 11.640625 9 L 72 9 L 72 32.1875 L 11.640625 32.1875 Z M 11.640625 9 " clip-rule="nonzero"/></clipPath></defs><g clip-path="url(#12d6185ed2)"><path fill="#808080" d="M 100.851562 32.1875 L 73.050781 32.1875 L 73.050781 4.683594 L 100.851562 4.683594 L 100.851562 32.1875 " fill-opacity="1" fill-rule="nonzero"/></g><g clip-path="url(#ecca05c62e)"><path fill="#808080" d="M 68.277344 23.683594 L 68.277344 27.679688 L 71.695312 27.679688 L 71.695312 23.683594 Z M 61.71875 25.320312 C 60.136719 25.320312 59.828125 23.785156 59.828125 20.789062 C 59.828125 17.789062 60.136719 16.253906 61.71875 16.253906 C 63.273438 16.253906 63.582031 17.789062 63.582031 20.789062 C 63.582031 23.785156 63.273438 25.320312 61.71875 25.320312 Z M 50.816406 25.628906 C 49.054688 25.628906 48.898438 23.605469 48.898438 20.789062 C 48.898438 17.96875 49.054688 15.945312 50.816406 15.945312 C 52.265625 15.945312 52.730469 17.355469 52.730469 20.789062 C 52.730469 24.21875 52.265625 25.628906 50.816406 25.628906 Z M 39.894531 25.628906 C 38.132812 25.628906 37.976562 23.605469 37.976562 20.789062 C 37.976562 17.96875 38.132812 15.945312 39.894531 15.945312 C 41.34375 15.945312 41.8125 17.355469 41.8125 20.789062 C 41.8125 24.21875 41.34375 25.628906 39.894531 25.628906 Z M 62.882812 13.535156 C 61.484375 13.535156 60.5 14.074219 59.722656 15.355469 L 59.671875 15.355469 L 59.671875 13.894531 L 56.253906 13.894531 L 56.253906 19.21875 C 55.988281 15.445312 54.617188 13.46875 50.816406 13.535156 C 47.070312 13.535156 45.582031 15.664062 45.359375 19.636719 C 45.164062 15.59375 43.835938 13.464844 39.894531 13.535156 C 35.800781 13.535156 34.402344 16.074219 34.402344 20.789062 C 34.402344 21.359375 34.421875 21.894531 34.457031 22.402344 L 31.074219 22.402344 C 31.074219 24.628906 30.53125 25.628906 29.339844 25.628906 C 27.734375 25.628906 27.421875 24.21875 27.421875 20.8125 C 27.421875 17.636719 27.707031 16.097656 29.46875 16.097656 C 30.816406 16.097656 31.074219 17.535156 31.074219 18.867188 L 34.492188 18.867188 C 34.492188 15.613281 32.78125 13.535156 29.492188 13.535156 C 26.203125 13.535156 23.847656 15.125 23.847656 20.789062 C 23.847656 20.941406 23.851562 21.089844 23.851562 21.234375 C 23.589844 19.667969 22.683594 18.558594 20.417969 17.585938 L 17.546875 16.355469 C 15.964844 15.6875 15.628906 14.996094 15.628906 13.871094 C 15.628906 12.792969 16.070312 11.742188 17.753906 11.742188 C 19.175781 11.742188 19.773438 12.742188 19.773438 14.457031 L 23.347656 14.457031 L 23.347656 13.945312 C 23.347656 10.4375 20.9375 9.027344 17.621094 9.027344 C 14.101562 9.027344 11.898438 10.847656 11.898438 14.40625 C 11.898438 17.457031 13.425781 18.816406 16.742188 19.941406 C 19.203125 20.789062 20.058594 21.402344 20.058594 23.066406 C 20.058594 24.605469 18.96875 25.320312 17.832031 25.320312 C 15.863281 25.320312 15.371094 24.21875 15.371094 22.503906 L 15.371094 21.964844 L 11.640625 21.964844 L 11.640625 22.707031 C 11.640625 26.089844 13.296875 28.039062 17.519531 28.039062 C 21.449219 28.039062 23.8125 26.386719 23.9375 22.734375 C 24.332031 26.734375 26.066406 28.039062 29.183594 28.039062 C 32.84375 28.039062 34.390625 26.140625 34.488281 22.742188 C 34.820312 26.261719 36.222656 28.105469 39.894531 28.039062 C 43.640625 28.039062 45.125 25.914062 45.351562 21.9375 C 45.546875 25.984375 46.875 28.109375 50.816406 28.039062 C 54.464844 28.039062 55.972656 26.019531 56.253906 22.234375 L 56.253906 32.1875 L 59.828125 32.1875 L 59.828125 26.398438 L 59.878906 26.398438 C 60.628906 27.5 61.535156 28.039062 62.882812 28.039062 C 65.808594 28.039062 67.15625 25.910156 67.15625 20.789062 C 67.15625 15.664062 65.808594 13.535156 62.882812 13.535156 " fill-opacity="1" fill-rule="nonzero"/></g><path fill="#ffffff" d="M 91.234375 27.644531 L 94.808594 27.644531 L 94.808594 24.261719 L 91.234375 24.261719 Z M 91.234375 9.144531 L 91.234375 15.296875 L 91.726562 22.546875 L 94.316406 22.546875 L 94.808594 15.296875 L 94.808594 9.144531 Z M 88.035156 9.140625 L 84.460938 9.140625 L 84.460938 13.859375 L 79.089844 13.859375 L 79.089844 27.644531 L 82.664062 27.644531 L 82.664062 16.269531 L 84.460938 16.269531 L 84.460938 24.160156 C 84.460938 26.953125 84.976562 27.800781 87.773438 27.800781 C 88.601562 27.800781 89.328125 27.722656 90.105469 27.644531 L 90.105469 25.1875 C 89.871094 25.210938 89.585938 25.238281 89.300781 25.238281 C 88.265625 25.238281 88.035156 24.800781 88.035156 23.726562 L 88.035156 16.269531 L 90.105469 16.269531 L 90.105469 13.859375 L 88.035156 13.859375 Z M 82.664062 9.144531 L 79.089844 9.144531 L 79.089844 12.167969 L 82.664062 12.167969 L 82.664062 9.144531 " fill-opacity="1" fill-rule="nonzero"/></svg>